# xmcd
#
# Track frame offsets: 
#        150
#        20810
#        40052
#        65852
#
# Disc length: 1149 seconds
#
# Revision: 4
# Processed by: cddbd v1.5.1PL0 Copyright (c) Steve Scherf et al.
# Submitted via: ExactAudioCopy v0.95a5
#
DISCID=35047b04
DTITLE=ц§хр - Separate ways
DYEAR=2001
DGENRE=Pop
TTITLE0=Separate Ways (Original Version)
TTITLE1=Separate Ways (128 Beat Mix) 
TTITLE2=EYES ON ME featured in FINAL FANTASY VIII
TTITLE3=Separate Ways (Instrumental)
EXTD=
EXTT0=
EXTT1=
EXTT2=
EXTT3=
PLAYORDER=
